<svg width="12" height="15" viewBox="0 0 12 15" fill="none" xmlns="http://www.w3.org/2000/svg">
<path d="M1.24302 4.83932L1.24341 4.83856C1.9733 3.41824 2.93787 2.28748 4.13642 1.4426L4.13681 1.44233C5.35415 0.578407 6.63427 0.15 7.98 0.15C8.41324 0.15 8.63767 0.241329 8.7316 0.362092L8.73733 0.369463L8.74393 0.376067C8.87222 0.504353 8.99487 0.768254 9.09373 1.20324L9.12645 1.34719L9.2709 1.31678C9.63908 1.23927 10.0485 1.2 10.5 1.2C10.9559 1.2 11.2846 1.31375 11.5083 1.52022C11.7303 1.72518 11.85 2.02094 11.85 2.43C11.85 2.87534 11.7524 3.66341 11.5523 4.80362C11.3318 6.02661 11.1613 7.2 11.0409 8.32373C10.9202 9.43026 10.86 10.6758 10.86 12.06C10.86 12.8045 10.7023 13.308 10.4208 13.6072L10.4206 13.6074C10.162 13.8832 9.71258 14.04 9.03 14.04C8.37335 14.04 7.90796 13.8859 7.60613 13.6039C7.32656 13.3045 7.17067 12.8127 7.17 12.0946L7.19971 11.6194L6.90889 11.5591C6.60522 12.4016 6.19604 13.0202 5.68853 13.4281C5.18305 13.8344 4.56972 14.04 3.84 14.04C2.7465 14.04 1.85959 13.6114 1.16779 12.7471C0.493809 11.8801 0.15 10.7357 0.15 9.3C0.15 7.72416 0.514166 6.23793 1.24302 4.83932ZM8.48741 2.81773L8.52169 2.63552L8.33634 2.64005C7.47641 2.66102 6.68376 2.99745 5.96145 3.63691C5.2413 4.25446 4.66897 5.07462 4.2417 6.09192C3.81373 7.11091 3.6 8.19072 3.6 9.33C3.6 9.94496 3.71217 10.4397 3.95639 10.795L3.95607 10.7952L3.96287 10.8037C4.23097 11.1388 4.58385 11.31 5.01 11.31C5.65023 11.31 6.19968 10.8623 6.66921 10.0662C7.14392 9.26126 7.55734 7.84801 7.91752 5.84717C7.91756 5.84697 7.91759 5.84677 7.91763 5.84657L8.48741 2.81773Z" fill="white" stroke="#2D2E4B" stroke-width="0.3"/>
</svg>
