<svg width="20" height="20" viewBox="0 0 20 20" fill="none" xmlns="http://www.w3.org/2000/svg">
<path d="M15.9986 13C15.7651 13.0005 15.5387 12.9192 15.3589 12.7702L10.001 8.29503L4.63309 12.6104C4.53084 12.6934 4.41319 12.7554 4.2869 12.7927C4.16061 12.8301 4.02817 12.8422 3.89719 12.8283C3.76622 12.8144 3.63928 12.7747 3.52369 12.7116C3.4081 12.6485 3.30613 12.5632 3.22364 12.4606C3.14061 12.3584 3.0786 12.2408 3.04118 12.1146C3.00376 11.9884 2.99168 11.8561 3.00561 11.7252C3.01954 11.5943 3.05922 11.4674 3.12237 11.3519C3.18552 11.2364 3.27089 11.1345 3.37358 11.0521L9.37123 6.22724C9.55009 6.08032 9.77445 6 10.006 6C10.2375 6 10.4619 6.08032 10.6407 6.22724L16.6384 11.2219C16.7396 11.3058 16.8233 11.4087 16.8846 11.525C16.9459 11.6412 16.9837 11.7684 16.9958 11.8992C17.0079 12.03 16.994 12.162 16.9549 12.2874C16.9159 12.4129 16.8525 12.5295 16.7683 12.6304C16.6753 12.745 16.558 12.8376 16.425 12.9015C16.2919 12.9654 16.1463 12.999 15.9986 13Z" fill="white"/>
</svg>
