<svg width="13" height="29" viewBox="0 0 13 29" fill="none" xmlns="http://www.w3.org/2000/svg">
<path d="M1.10674 10.9811L1.10678 10.9809C1.74435 7.95246 2.66961 5.3882 3.8799 3.28501C5.10647 1.16827 6.5358 0.15 8.16 0.15C9.02761 0.15 9.72315 0.52321 10.2571 1.28602L10.2571 1.28603L10.2582 1.28748C10.7949 2.03508 11.07 3.02165 11.07 4.26C11.07 5.88063 10.7637 7.4925 10.1499 9.09639C9.53702 10.6978 8.51645 12.3842 7.08338 14.1557L6.9048 14.3764L7.1878 14.3995C8.13984 14.4772 8.96082 14.7969 9.6559 15.3568L9.65747 15.3581C10.3759 15.9212 10.9206 16.6497 11.2914 17.5473L11.2913 17.5473L11.2924 17.5498C11.6836 18.4495 11.88 19.429 11.88 20.49C11.88 21.9695 11.5842 23.2961 10.9958 24.4729L10.9949 24.4747C10.4247 25.6546 9.67043 26.5736 8.73411 27.237C7.79782 27.8805 6.79747 28.2 5.73 28.2C3.77578 28.2 2.36854 27.452 1.47913 25.9637C0.598798 24.4569 0.15 22.2581 0.15 19.35C0.15 16.7823 0.468499 13.9928 1.10674 10.9811ZM3.81051 16.2776L4.09168 16.3618C5.41314 13.9392 6.46547 11.8047 7.24794 9.95893C8.05286 8.08741 8.46 6.41679 8.46 4.95C8.46 4.30331 8.38002 3.78858 8.20729 3.41947C8.05542 3.05281 7.81484 2.82 7.47 2.82C7.19349 2.82 6.94433 3.02408 6.71904 3.3313C6.48805 3.64628 6.25252 4.10981 6.01072 4.71429L6.01024 4.71552C5.54562 5.90738 5.11358 7.52718 4.7128 9.57114C4.31157 11.6174 4.01089 13.853 3.81051 16.2776ZM4.22794 24.3872L4.22792 24.3872L4.22947 24.3893C4.65385 24.9622 5.19627 25.26 5.85 25.26C6.59613 25.26 7.20813 24.8496 7.68662 24.0804C8.18878 23.3055 8.43 22.1922 8.43 20.76C8.43 19.646 8.22818 18.7794 7.80206 18.1828C7.38116 17.5936 6.8597 17.28 6.24 17.28C5.47772 17.28 4.84554 17.6763 4.34519 18.4268C3.84166 19.1821 3.6 20.2665 3.6 21.66C3.6 22.8706 3.80063 23.789 4.22794 24.3872Z" fill="white" stroke="#2D2F46" stroke-width="0.3"/>
</svg>
