<svg width="20" height="20" viewBox="0 0 20 20" fill="none" xmlns="http://www.w3.org/2000/svg">
<path d="M11.8385 16.9999C11.6891 17.0004 11.5415 16.9675 11.4065 16.9034C11.2715 16.8394 11.1525 16.746 11.0584 16.63L6.22753 10.6305C6.08042 10.4516 6 10.2272 6 9.99559C6 9.76399 6.08042 9.53957 6.22753 9.36065L11.2284 3.36122C11.3982 3.15702 11.6422 3.02861 11.9066 3.00423C12.1711 2.97985 12.4344 3.06151 12.6387 3.23123C12.8429 3.40095 12.9714 3.64484 12.9958 3.90924C13.0202 4.17364 12.9385 4.4369 12.7687 4.6411L8.2979 10.0006L12.6187 15.3601C12.741 15.5069 12.8187 15.6856 12.8426 15.8751C12.8664 16.0646 12.8355 16.257 12.7535 16.4296C12.6714 16.6021 12.5416 16.7475 12.3795 16.8485C12.2173 16.9496 12.0296 17.0022 11.8385 16.9999Z" fill="white"/>
</svg>
