<svg width="14" height="17" viewBox="0 0 14 17" fill="none" xmlns="http://www.w3.org/2000/svg">
<path d="M7.28075 17C5.7959 17 4.50446 16.7143 3.40642 16.143C2.30838 15.5584 1.46613 14.7347 0.879679 13.6717C0.293226 12.6088 0 11.3732 0 9.96483C0 8.01172 0.343137 6.27784 1.02941 4.76319C1.72816 3.24853 2.67023 2.07933 3.85562 1.25557C5.041 0.418523 6.3574 0 7.80481 0C9.15241 0 10.1756 0.37202 10.8743 1.11606C11.5731 1.84681 11.9225 2.81672 11.9225 4.02579C11.9225 4.83626 11.7852 5.4873 11.5107 5.9789C11.2487 6.4705 10.8681 6.71629 10.369 6.71629C10.0196 6.71629 9.7451 6.62993 9.54545 6.45721C9.34581 6.28449 9.24599 6.03204 9.24599 5.69988C9.24599 5.5803 9.27095 5.36108 9.32086 5.0422C9.39572 4.64361 9.43316 4.32474 9.43316 4.08558C9.43316 2.87651 8.82799 2.27198 7.61765 2.27198C6.79412 2.27198 6.00802 2.55764 5.25936 3.12896C4.5107 3.70027 3.90553 4.54396 3.44385 5.66002C2.98218 6.7628 2.75134 8.07815 2.75134 9.60609C2.75134 11.2005 3.16934 12.4361 4.00535 13.313C4.84136 14.1766 6.07665 14.6084 7.71123 14.6084C8.52228 14.6084 9.33957 14.5021 10.1631 14.2896C10.9991 14.0637 11.9225 13.7249 12.9332 13.2732C13.1203 13.1934 13.2763 13.1536 13.4011 13.1536C13.6007 13.1536 13.7504 13.2333 13.8503 13.3927C13.9501 13.5522 14 13.7581 14 14.0105C14 14.821 13.5882 15.4189 12.7647 15.8042C11.8788 16.2161 10.9554 16.5217 9.99465 16.721C9.04635 16.907 8.14171 17 7.28075 17Z" fill="white"/>
</svg>
