<svg width="14" height="14" viewBox="0 0 14 14" fill="none" xmlns="http://www.w3.org/2000/svg">
<path d="M12.8333 3.90835C13.0189 3.72783 13.1672 3.5125 13.2697 3.27467C13.3721 3.03684 13.4267 2.78116 13.4303 2.52224C13.4339 2.26331 13.3865 2.00621 13.2907 1.76561C13.1949 1.52502 13.0527 1.30564 12.8722 1.12001C12.498 0.763744 11.9987 0.568943 11.4821 0.577674C10.9655 0.586405 10.473 0.797968 10.1111 1.16668L8.08106 3.16946C7.92592 3.32335 7.71625 3.40969 7.49773 3.40969C7.27921 3.40969 7.06954 3.32335 6.91439 3.16946L6.65384 2.9089L6.11328 3.4689L10.5311 7.88668L11.0833 7.33446L10.8227 7.0739C10.6688 6.91876 10.5825 6.70909 10.5825 6.49057C10.5825 6.27205 10.6688 6.06238 10.8227 5.90724L12.8333 3.90835ZM10.2822 5.36668C10.0762 5.57223 9.93087 5.83058 9.86217 6.11335L7.88662 4.13779C8.16938 4.06909 8.42773 3.92377 8.63328 3.71779L10.6399 1.70724C10.8598 1.47899 11.1609 1.34684 11.4778 1.33956C11.7946 1.33227 12.1015 1.45045 12.3316 1.66835C12.5495 1.89847 12.6677 2.20535 12.6604 2.52219C12.6531 2.83902 12.521 3.14015 12.2927 3.36001L10.2822 5.36668Z" fill="white"/>
<path d="M2.83892 12.2539C2.69298 12.3999 2.49503 12.4818 2.28864 12.4818C2.08225 12.4818 1.8843 12.3999 1.73836 12.2539C1.59242 12.108 1.51043 11.91 1.51043 11.7036C1.51043 11.4972 1.59242 11.2993 1.73836 11.1534L7.22558 5.66613L6.67336 5.1178L1.18614 10.605C0.943795 10.8443 0.786679 11.1565 0.738908 11.4937C0.691137 11.8309 0.755352 12.1745 0.921695 12.4717L0.34614 13.0472C0.307898 13.0836 0.277446 13.1273 0.256637 13.1758C0.235828 13.2242 0.225098 13.2764 0.225098 13.3292C0.225098 13.3819 0.235828 13.4341 0.256637 13.4826C0.277446 13.5311 0.307898 13.5748 0.34614 13.6111C0.382292 13.6476 0.425304 13.6765 0.472693 13.6963C0.520083 13.716 0.570913 13.7262 0.622251 13.7262C0.673589 13.7262 0.724419 13.716 0.771809 13.6963C0.819198 13.6765 0.86221 13.6476 0.898362 13.6111L1.45447 13.0511C1.69806 13.2038 1.97977 13.2847 2.26725 13.2845C2.47549 13.2844 2.68165 13.2431 2.87387 13.163C3.06609 13.0829 3.24056 12.9656 3.38725 12.8178L8.87447 7.31502L8.32614 6.76669L2.83892 12.2539Z" fill="white"/>
</svg>
