<svg width="21" height="20" viewBox="0 0 21 20" fill="none" xmlns="http://www.w3.org/2000/svg">
<g opacity="0.6">
<path d="M8.25743 12.3556C7.0547 11.8639 6.05407 10.9935 5.39382 9.84989C5.17681 9.47411 5.00403 9.08094 4.87561 8.677C3.18035 9.44868 1.9989 11.1586 1.9989 13.1395C1.9989 15.8412 4.19693 18.0392 6.89878 18.0392C7.96349 18.0392 8.94985 17.6977 9.75448 17.1186C8.79289 16.0691 8.20515 14.6717 8.20515 13.1395C8.20515 12.8737 8.22318 12.6121 8.25743 12.3556Z" fill="white"/>
<path d="M10.4999 8.47437C11.4968 7.70308 12.7462 7.24337 14.1011 7.24337C14.5381 7.24337 14.9641 7.29162 15.3743 7.38229C15.4727 6.39684 15.2752 5.37313 14.7433 4.45202C14.0889 3.31856 13.0324 2.50784 11.7682 2.16902C11.3461 2.05591 10.9176 2 10.492 2C9.6429 2 8.80507 2.22259 8.04999 2.65857C6.91654 3.31298 6.10582 4.36965 5.76713 5.63386C5.61186 6.21291 5.56464 6.80389 5.62146 7.3832C6.03292 7.29201 6.46033 7.24337 6.89877 7.24337C8.25365 7.24337 9.50307 7.70308 10.4999 8.47437Z" fill="white"/>
<path d="M6.25656 9.35188C6.77594 10.2515 7.54892 10.9475 8.47781 11.3658C8.73984 10.5368 9.18048 9.78656 9.75448 9.16016C8.94985 8.58111 7.96349 8.23944 6.89878 8.23944C6.52819 8.23944 6.16732 8.28108 5.82007 8.35943C5.92734 8.70136 6.07301 9.03395 6.25656 9.35188Z" fill="white"/>
<path d="M19.0011 13.1395C19.0011 11.1569 17.8175 9.44569 16.1199 8.67505C15.6921 10.0333 14.7756 11.2416 13.4481 12.0081C13.2188 12.1404 12.9832 12.2562 12.7427 12.3557C12.7768 12.6122 12.7948 12.8737 12.7948 13.1395C12.7948 14.6717 12.2072 16.0691 11.2455 17.1186C12.0501 17.6977 13.0365 18.0392 14.1012 18.0392C16.803 18.0392 19.0011 15.8412 19.0011 13.1395Z" fill="white"/>
<path d="M11.7752 12.6607C11.3598 12.7532 10.9358 12.8005 10.5096 12.8005C10.0815 12.8005 9.6514 12.7528 9.22502 12.6578C9.20946 12.8163 9.20142 12.9769 9.20142 13.1395C9.20142 14.4186 9.69434 15.5847 10.5 16.4582C11.3057 15.5847 11.7986 14.4186 11.7986 13.1395C11.7986 12.9778 11.7905 12.8182 11.7752 12.6607Z" fill="white"/>
<path d="M15.1756 8.35851C14.8298 8.28081 14.4702 8.23956 14.1012 8.23956C13.0365 8.23956 12.0501 8.5811 11.2455 9.16016C11.8193 9.78642 12.26 10.5367 12.522 11.3656C12.6672 11.2994 12.81 11.226 12.9499 11.1452C14.0586 10.5052 14.8224 9.49404 15.1756 8.35851Z" fill="white"/>
<path d="M9.42261 11.6817C10.1416 11.8444 10.8748 11.8433 11.5778 11.6839C11.3591 10.9824 10.9865 10.3482 10.4999 9.82062C10.0139 10.3477 9.64144 10.9811 9.42261 11.6817Z" fill="white"/>
</g>
</svg>
