<svg width="21" height="20" viewBox="0 0 21 20" fill="none" xmlns="http://www.w3.org/2000/svg">
<g opacity="0.6">
<path d="M8.66663 2H3.66663C3.02332 2 2.5 2.52332 2.5 3.16663V6.16663C2.5 6.81006 3.02332 7.33337 3.66663 7.33337H8.66663C9.31006 7.33337 9.83337 6.81006 9.83337 6.16663V3.16663C9.83337 2.52332 9.31006 2 8.66663 2Z" fill="white"/>
<path d="M8.66663 8.66663H3.66663C3.02332 8.66663 2.5 9.18994 2.5 9.83337V16.8334C2.5 17.4767 3.02332 18 3.66663 18H8.66663C9.31006 18 9.83337 17.4767 9.83337 16.8334V9.83337C9.83337 9.18994 9.31006 8.66663 8.66663 8.66663Z" fill="white"/>
<path d="M17.3334 12.6666H12.3334C11.6899 12.6666 11.1666 13.1899 11.1666 13.8334V16.8334C11.1666 17.4767 11.6899 18 12.3334 18H17.3334C17.9767 18 18.5 17.4767 18.5 16.8334V13.8334C18.5 13.1899 17.9767 12.6666 17.3334 12.6666Z" fill="white"/>
<path d="M17.3334 2H12.3334C11.6899 2 11.1666 2.52332 11.1666 3.16663V10.1666C11.1666 10.8101 11.6899 11.3334 12.3334 11.3334H17.3334C17.9767 11.3334 18.5 10.8101 18.5 10.1666V3.16663C18.5 2.52332 17.9767 2 17.3334 2V2Z" fill="white"/>
</g>
</svg>
