<svg width="13" height="13" viewBox="0 0 13 13" fill="none" xmlns="http://www.w3.org/2000/svg">
<path d="M3.90087 5.41667C3.71299 5.41667 3.52695 5.45367 3.35338 5.52557C3.1798 5.59747 3.02209 5.70285 2.88924 5.8357C2.75639 5.96854 2.65101 6.12626 2.57912 6.29983C2.50722 6.47341 2.47021 6.65944 2.47021 6.84732C2.47021 7.03519 2.50722 7.22123 2.57912 7.3948C2.65101 7.56838 2.75639 7.72609 2.88924 7.85894C3.02209 7.99179 3.1798 8.09717 3.35338 8.16907C3.52695 8.24096 3.71299 8.27797 3.90087 8.27797C4.2803 8.27788 4.64415 8.12707 4.91239 7.85871C5.18063 7.59035 5.33128 7.22643 5.33119 6.84699C5.3311 6.46756 5.18029 6.1037 4.91193 5.83547C4.64357 5.56723 4.27965 5.41658 3.90022 5.41667H3.90087ZM3.90087 3.72667C4.08866 3.72658 4.27459 3.68951 4.44805 3.61757C4.62152 3.54562 4.77911 3.44022 4.91184 3.30737C5.04456 3.17452 5.14983 3.01683 5.22161 2.84331C5.2934 2.66978 5.3303 2.48381 5.33021 2.29602C5.33013 2.10823 5.29306 1.92229 5.22111 1.74883C5.14917 1.57537 5.04377 1.41777 4.91092 1.28505C4.77807 1.15232 4.62038 1.04706 4.44685 0.975272C4.27332 0.903487 4.08736 0.866583 3.89956 0.866669C3.52031 0.866841 3.15665 1.01767 2.88859 1.28597C2.62054 1.55426 2.47004 1.91806 2.47021 2.29732C2.47039 2.67658 2.62121 3.04024 2.88951 3.30829C3.15781 3.57635 3.52161 3.72684 3.90087 3.72667ZM3.90087 9.96667C3.52143 9.96667 3.15754 10.1174 2.88924 10.3857C2.62094 10.654 2.47021 11.0179 2.47021 11.3973C2.47021 11.7768 2.62094 12.1406 2.88924 12.4089C3.15754 12.6772 3.52143 12.828 3.90087 12.828C4.2803 12.828 4.64419 12.6772 4.91249 12.4089C5.18079 12.1406 5.33151 11.7768 5.33151 11.3973C5.33151 11.0179 5.18079 10.654 4.91249 10.3857C4.64419 10.1174 4.2803 9.96667 3.90087 9.96667Z" fill="white" fill-opacity="0.4"/>
<path d="M9.23045 5.41667C9.04258 5.41667 8.85654 5.45367 8.68297 5.52557C8.50939 5.59747 8.35168 5.70285 8.21883 5.8357C8.08598 5.96854 7.9806 6.12626 7.90871 6.29983C7.83681 6.47341 7.7998 6.65944 7.7998 6.84732C7.7998 7.03519 7.83681 7.22123 7.90871 7.3948C7.9806 7.56838 8.08598 7.72609 8.21883 7.85894C8.35168 7.99179 8.50939 8.09717 8.68297 8.16907C8.85654 8.24096 9.04258 8.27797 9.23045 8.27797C9.60989 8.27788 9.97374 8.12707 10.242 7.85871C10.5102 7.59035 10.6609 7.22643 10.6608 6.84699C10.6607 6.46756 10.5099 6.1037 10.2415 5.83547C9.97316 5.56723 9.60924 5.41658 9.2298 5.41667H9.23045ZM9.23045 3.72667C9.41825 3.72658 9.60418 3.68951 9.77764 3.61757C9.95111 3.54562 10.1087 3.44022 10.2414 3.30737C10.3742 3.17452 10.4794 3.01683 10.5512 2.84331C10.623 2.66978 10.6599 2.48381 10.6598 2.29602C10.6597 2.10823 10.6226 1.92229 10.5507 1.74883C10.4788 1.57537 10.3734 1.41777 10.2405 1.28505C10.1077 1.15232 9.94997 1.04706 9.77644 0.975272C9.60291 0.903487 9.41694 0.866583 9.22915 0.866669C8.84989 0.866841 8.48624 1.01767 8.21818 1.28597C7.95013 1.55426 7.79963 1.91806 7.7998 2.29732C7.79998 2.67658 7.9508 3.04024 8.2191 3.30829C8.4874 3.57635 8.8512 3.72684 9.23045 3.72667ZM9.23045 9.96667C8.85102 9.96667 8.48713 10.1174 8.21883 10.3857C7.95053 10.654 7.7998 11.0179 7.7998 11.3973C7.7998 11.7768 7.95053 12.1406 8.21883 12.4089C8.48713 12.6772 8.85102 12.828 9.23045 12.828C9.60989 12.828 9.97378 12.6772 10.2421 12.4089C10.5104 12.1406 10.6611 11.7768 10.6611 11.3973C10.6611 11.0179 10.5104 10.654 10.2421 10.3857C9.97378 10.1174 9.60989 9.96667 9.23045 9.96667Z" fill="white" fill-opacity="0.4"/>
</svg>
