<svg width="13" height="13" viewBox="0 0 13 13" fill="none" xmlns="http://www.w3.org/2000/svg">
<path d="M12.1027 3.0379L9.97713 0.897691C9.83667 0.757694 9.64659 0.679104 9.44845 0.679104C9.25031 0.679104 9.06023 0.757694 8.91977 0.897691L1.38433 8.43557L0.696322 11.4101C0.672588 11.5188 0.673401 11.6315 0.698703 11.7399C0.724004 11.8483 0.773155 11.9496 0.842563 12.0365C0.911972 12.1234 0.999885 12.1937 1.09988 12.2422C1.19988 12.2908 1.30943 12.3163 1.42054 12.317C1.47231 12.3222 1.52447 12.3222 1.57624 12.317L4.57811 11.6277L12.1027 4.09712C12.2424 3.95641 12.3209 3.766 12.3209 3.56751C12.3209 3.36902 12.2424 3.17861 12.1027 3.0379ZM4.216 10.9748L1.40243 11.5661L2.04336 8.80195L7.68137 3.17574L9.85401 5.35222L4.216 10.9748ZM10.3392 4.82624L8.16659 2.64976L9.42672 1.39465L11.5632 3.57114L10.3392 4.82624Z" fill="white"/>
<path fill-rule="evenodd" clip-rule="evenodd" d="M8.79334 0.770837C8.96733 0.597412 9.20287 0.5 9.44845 0.5C9.69404 0.5 9.92957 0.597412 10.1036 0.770837L10.1042 0.771479L12.2298 2.91169C12.4029 3.08598 12.5 3.32178 12.5 3.56751C12.5 3.81324 12.4029 4.04904 12.2298 4.22333L4.6684 11.7908L1.60541 12.494L1.59427 12.4952C1.53332 12.5013 1.47193 12.5016 1.41095 12.496C1.27603 12.4939 1.14317 12.4623 1.0217 12.4034C0.897672 12.3432 0.78866 12.256 0.70261 12.1483C0.616561 12.0405 0.555644 11.9149 0.524288 11.7806C0.492932 11.6463 0.491924 11.5067 0.521337 11.3719L0.521811 11.3697L1.22139 8.34523L8.79334 0.770837ZM9.04621 1.02455C9.04616 1.0246 9.04626 1.02449 9.04621 1.02455L1.54726 8.52592L0.871087 11.4493C0.853257 11.5317 0.853949 11.6171 0.873118 11.6992C0.892365 11.7816 0.929748 11.8587 0.982517 11.9248C1.03528 11.9908 1.1021 12.0442 1.17807 12.0811C1.25403 12.118 1.33724 12.1374 1.42162 12.1379L1.43011 12.1379L1.43856 12.1388C1.47488 12.1424 1.51144 12.1428 1.5478 12.1397L4.48782 11.4647L11.9756 3.97091C11.9757 3.97085 11.9756 3.97097 11.9756 3.97091C12.0819 3.8638 12.1418 3.71867 12.1418 3.56751C12.1418 3.41626 12.082 3.27123 11.9756 3.16411L9.85069 1.02455C9.85058 1.02444 9.85079 1.02465 9.85069 1.02455C9.7438 0.918173 9.599 0.858209 9.44845 0.858209C9.29783 0.858209 9.15312 0.918076 9.04621 1.02455ZM9.42816 1.14044L11.8137 3.57072L10.3407 5.08125L7.91316 2.64939L9.42816 1.14044ZM8.42002 2.65013L10.3377 4.57123L11.3126 3.57155L9.42529 1.64887L8.42002 2.65013ZM7.68161 2.92247L10.1074 5.35251L4.30485 11.1391L1.16455 11.7991L1.88049 8.71145L7.68161 2.92247ZM2.20623 8.89244L1.64032 11.3331L4.12716 10.8105L9.60066 5.35194L7.68112 3.42901L2.20623 8.89244Z" fill="white"/>
</svg>
