<svg xmlns="http://www.w3.org/2000/svg" width="24" height="24" fill="none" viewBox="0 0 24 24">
  <path fill="#FF6388" d="M24 12c0 6.627-5.373 12-12 12S0 18.627 0 12 5.373 0 12 0s12 5.373 12 12z" opacity=".2"/>
  <mask id="a" width="24" height="24" x="0" y="0" maskUnits="userSpaceOnUse" style="mask-type:alpha">
    <path fill="#FF6388" d="M24 12c0 6.627-5.373 12-12 12S0 18.627 0 12 5.373 0 12 0s12 5.373 12 12z"/>
  </mask>
  <g mask="url(#a)">
    <path fill="#FF6388" d="M17.143 11.309c-.756-1.698-2.302-2.671-4.24-2.671-1.87 0-3.304.79-4.103 2.24-.799-1.45-2.233-2.24-4.102-2.24-1.94 0-3.485.973-4.24 2.67-.93 2.088-.417 4.673 1.307 6.588 1.152 1.28 6.77 7.008 6.826 7.064a.293.293 0 00.418 0c.055-.056 5.675-5.784 6.827-7.064 1.723-1.915 2.236-4.5 1.307-6.587zm-2.179 5.803c-.579.644-2.408 2.495-4.022 4.128a617.32 617.32 0 00-1.932 1.962.293.293 0 01-.42 0c-.518-.53-1.205-1.226-1.932-1.962-1.614-1.633-3.443-3.484-4.022-4.128C1.028 15.325.92 13.15 1.528 11.786c.567-1.274 1.693-1.976 3.17-1.976 1.939 0 3.135 1.6 4.102 3.453.967-1.853 2.163-3.453 4.103-3.453 1.476 0 2.602.702 3.17 1.976.607 1.364.5 3.54-1.109 5.326z"/>
    <path fill="#FF6388" d="M12.902 10.396c-1.798 0-2.908 1.753-3.84 3.646-.098.2-.427.2-.525 0-.932-1.893-2.042-3.646-3.84-3.646-1.23 0-2.167.579-2.634 1.629-.53 1.19-.424 3.104 1.008 4.695.57.634 2.394 2.48 4.003 4.109.634.641 1.238 1.252 1.726 1.75.488-.498 1.092-1.109 1.725-1.75 1.61-1.629 3.433-3.475 4.004-4.109 1.432-1.59 1.538-3.504 1.007-4.695-.467-1.05-1.403-1.629-2.634-1.629z" opacity=".8"/>
    <g>
      <path fill="#FF6388" d="M20.654 4.796c-.24-.54-.732-.85-1.35-.85-.594 0-1.05.251-1.305.713-.254-.462-.71-.713-1.305-.713-.617 0-1.109.31-1.35.85-.295.664-.132 1.486.417 2.096.366.407 2.154 2.23 2.172 2.247a.093.093 0 00.133 0c.017-.018 1.805-1.84 2.172-2.247.548-.61.711-1.432.416-2.096zm-.693 1.846c-.185.205-.767.794-1.28 1.314-.232.234-.45.455-.615.624a.093.093 0 01-.133 0c-.165-.169-.384-.39-.615-.624a67.275 67.275 0 01-1.28-1.314c-.512-.568-.546-1.26-.353-1.695.18-.405.539-.628 1.009-.628.617 0 .998.509 1.305 1.099.308-.59.689-1.1 1.306-1.1.47 0 .828.224 1.008.63.193.433.16 1.126-.352 1.694z"/>
      <path fill="#FF6388" d="M19.304 4.505c-.572 0-.925.558-1.222 1.16-.031.064-.136.064-.167 0-.297-.602-.65-1.16-1.222-1.16-.392 0-.69.184-.838.518-.169.38-.135.988.32 1.494.182.202.763.79 1.275 1.308l.549.556.549-.556c.512-.519 1.092-1.106 1.273-1.308.456-.506.49-1.115.321-1.494-.149-.334-.446-.518-.838-.518z" opacity=".8"/>
    </g>
  </g>
</svg>
