<svg width="18" height="18" viewBox="0 0 18 18" fill="none" xmlns="http://www.w3.org/2000/svg">
<path d="M14.4676 1.7826C14.5373 1.8529 14.6203 1.9087 14.7117 1.94677C14.8031 1.98485 14.9011 2.00445 15.0001 2.00445C15.0991 2.00445 15.1971 1.98485 15.2885 1.94677C15.3799 1.9087 15.4629 1.8529 15.5326 1.7826C15.5989 1.7097 15.6521 1.62599 15.6901 1.5351C15.7285 1.44494 15.7489 1.34811 15.7501 1.2501C15.7507 1.1514 15.7318 1.05355 15.6944 0.962175C15.6571 0.870797 15.6021 0.787685 15.5326 0.717605L15.4201 0.627605C15.3783 0.59922 15.3329 0.576521 15.2851 0.560105C15.1485 0.50267 14.998 0.486978 14.8525 0.515009C14.707 0.543039 14.5731 0.613536 14.4676 0.717605C14.3981 0.787685 14.3431 0.870797 14.3058 0.962175C14.2685 1.05355 14.2495 1.1514 14.2501 1.2501C14.2513 1.34811 14.2717 1.44494 14.3101 1.5351C14.3481 1.62599 14.4014 1.7097 14.4676 1.7826ZM15.0001 2.7501C14.8012 2.7501 14.6104 2.82912 14.4698 2.96977C14.3291 3.11043 14.2501 3.30119 14.2501 3.5001V6.5001C14.2501 6.69902 14.3291 6.88978 14.4698 7.03043C14.6104 7.17109 14.8012 7.2501 15.0001 7.2501C15.199 7.2501 15.3898 7.17109 15.5304 7.03043C15.6711 6.88978 15.7501 6.69902 15.7501 6.5001V3.5001C15.7501 3.30119 15.6711 3.11043 15.5304 2.96977C15.3898 2.82912 15.199 2.7501 15.0001 2.7501ZM15.0451 8.7501C14.8483 8.7268 14.6502 8.78234 14.4942 8.90461C14.3383 9.02687 14.237 9.20591 14.2126 9.4026C14.0535 10.6726 13.436 11.8408 12.4761 12.6874C11.5162 13.5341 10.28 14.0009 9.0001 14.0001H4.8076L5.2876 13.5276C5.42729 13.3871 5.5057 13.197 5.5057 12.9989C5.5057 12.8007 5.42729 12.6106 5.2876 12.4701C4.55072 11.7363 4.04838 10.8001 3.84429 9.7804C3.64021 8.76067 3.74356 7.7033 4.14126 6.74239C4.53896 5.78149 5.21308 4.96034 6.07812 4.38311C6.94316 3.80587 7.96015 3.49854 9.0001 3.5001C9.9197 3.49871 10.8231 3.74204 11.6176 4.2051C11.7868 4.28157 11.9783 4.29256 12.1552 4.23595C12.332 4.17933 12.4815 4.05914 12.5749 3.89863C12.6682 3.73811 12.6986 3.54869 12.6604 3.36701C12.6221 3.18533 12.5178 3.02431 12.3676 2.9151C11.3469 2.31487 10.1842 1.99893 9.0001 2.0001C7.7307 2.00428 6.48821 2.36632 5.41524 3.04466C4.34228 3.723 3.48235 4.69015 2.93416 5.83509C2.38596 6.98003 2.17174 8.25634 2.31606 9.51752C2.46039 10.7787 2.95742 11.9736 3.7501 12.9651L2.4676 14.2176C2.36354 14.3231 2.29304 14.457 2.26501 14.6025C2.23698 14.748 2.25267 14.8985 2.3101 15.0351C2.36637 15.1721 2.46192 15.2893 2.58471 15.3721C2.7075 15.4548 2.85204 15.4994 3.0001 15.5001H9.0001C10.6448 15.5001 12.233 14.8996 13.4662 13.8113C14.6994 12.7231 15.4929 11.222 15.6976 9.5901C15.7102 9.49206 15.7033 9.3925 15.6773 9.29713C15.6513 9.20177 15.6067 9.11249 15.546 9.03443C15.4854 8.95636 15.4099 8.89106 15.3239 8.84226C15.238 8.79347 15.1432 8.76215 15.0451 8.7501Z" fill="white"/>
</svg>
