<svg width="16" height="16" viewBox="0 0 16 16" fill="none" xmlns="http://www.w3.org/2000/svg">
<path d="M6 8H10" stroke="white" stroke-width="1.5" stroke-linecap="round" stroke-linejoin="round"/>
<path d="M10 4H10.6667C11.7275 4 12.7449 4.42143 13.4951 5.17157C14.2452 5.92172 14.6667 6.93913 14.6667 8C14.6667 9.06087 14.2452 10.0783 13.4951 10.8284C12.7449 11.5786 11.7275 12 10.6667 12H10" stroke="white" stroke-width="1.5" stroke-linecap="round" stroke-linejoin="round"/>
<path d="M5.99992 12H5.33325C4.27239 12 3.25497 11.5786 2.50482 10.8284C1.75468 10.0783 1.33325 9.06087 1.33325 8C1.33325 6.93913 1.75468 5.92172 2.50482 5.17157C3.25497 4.42143 4.27239 4 5.33325 4H5.99992" stroke="white" stroke-width="1.5" stroke-linecap="round" stroke-linejoin="round"/>
</svg>
