<svg xmlns="http://www.w3.org/2000/svg" width="24" height="24" fill="none" viewBox="0 0 24 24">
  <path fill="#5EA7FC" d="M24 12c0 6.627-5.373 12-12 12S0 18.627 0 12 5.373 0 12 0s12 5.373 12 12z" opacity=".2"/>
  <mask id="a" width="24" height="24" x="0" y="0" maskUnits="userSpaceOnUse" style="mask-type:alpha">
    <path fill="#5EA7FC" d="M24 12c0 6.627-5.373 12-12 12S0 18.627 0 12 5.373 0 12 0s12 5.373 12 12z"/>
  </mask>
  <g mask="url(#a)">
    <path fill="#5EA7FC" d="M13.843 11.734a.401.401 0 00-.278-.086h-1.53l1.428-1.595.134-.148.087-.105a.484.484 0 00.058-.108.36.36 0 00.025-.13.271.271 0 00-.134-.26.81.81 0 00-.38-.073h-1.792a.39.39 0 00-.264.08.267.267 0 00-.094.213c0 .123.04.195.123.224.117.033.24.048.361.043h1.157a3.34 3.34 0 01-.192.24l-.3.339-.39.434-.466.517c-.163.18-.268.303-.319.361a.34.34 0 00.033.466.492.492 0 00.34.109h2.111a.412.412 0 00.282-.083.275.275 0 00.094-.214.289.289 0 00-.094-.224zM17.032 13.553a.318.318 0 00-.224-.07h-1.214l1.138-1.272.109-.119.069-.083a.388.388 0 00.046-.087.296.296 0 00.022-.105.217.217 0 00-.105-.21.644.644 0 00-.303-.057h-1.417a.314.314 0 00-.21.065.213.213 0 00-.076.17c0 .097.033.155.098.18.094.028.191.04.289.037h.91c-.039.054-.09.115-.151.191l-.239.271-.31.362-.362.412c-.13.145-.216.243-.257.296a.271.271 0 00.026.362.39.39 0 00.256.069h1.685c.08.006.16-.017.224-.066a.22.22 0 00.072-.17.231.231 0 00-.076-.176zM20.82 11.531a.402.402 0 00-.277-.086h-1.526l1.428-1.595.13-.162.087-.105a.496.496 0 00.058-.109.36.36 0 00.025-.13.271.271 0 00-.134-.26.813.813 0 00-.398-.083h-1.77a.39.39 0 00-.265.08.268.268 0 00-.094.213c0 .123.04.195.123.224.118.033.24.048.362.043h1.157c-.049.068-.111.147-.188.239l-.3.34-.39.433-.467.517c-.163.181-.268.304-.318.362a.333.333 0 00-.076.202c-.005.1.035.197.108.264a.492.492 0 00.333.098h2.11a.412.412 0 00.283-.083.274.274 0 00.094-.214.289.289 0 00-.094-.188z"/>
    <path fill="#5EA7FC" d="M18.82 18.988a.393.393 0 00-.32-.007h.005A8.333 8.333 0 017.766 7.761a.392.392 0 00-.506-.53 9.126 9.126 0 1011.747 12.28.392.392 0 00-.187-.523z"/>
  </g>
</svg>
