<svg width="21" height="20" viewBox="0 0 21 20" fill="none" xmlns="http://www.w3.org/2000/svg">
<g opacity="0.6">
<path d="M10.5 13.3333C11.8925 13.3333 13 12.2241 13 10.8333C13 9.44248 11.8925 8.33331 10.5 8.33331C9.1075 8.33331 8 9.44248 8 10.8333C8 12.2241 9.1075 13.3333 10.5 13.3333Z" fill="white"/>
<path d="M17.8475 9.32169C17.6511 8.36198 17.2674 7.45042 16.7183 6.63919C16.1788 5.84109 15.4914 5.15371 14.6933 4.61419C13.882 4.06529 12.9705 3.6816 12.0108 3.48502C11.5067 3.38279 10.9935 3.33253 10.4792 3.33502V1.66669L7.16667 4.16669L10.4792 6.66669V5.00169C10.8825 5.00002 11.2858 5.03835 11.675 5.11835C12.4209 5.27119 13.1293 5.56936 13.76 5.99585C14.382 6.41522 14.9173 6.95054 15.3367 7.57252C15.9878 8.53521 16.335 9.67115 16.3333 10.8334C16.3332 11.6133 16.1774 12.3853 15.875 13.1042C15.7279 13.4505 15.5482 13.782 15.3383 14.0942C15.1276 14.4045 14.8882 14.6944 14.6233 14.96C13.8167 15.7652 12.7926 16.3175 11.6767 16.5492C10.9006 16.7059 10.1011 16.7059 9.325 16.5492C8.5788 16.3962 7.87003 16.0977 7.23917 15.6709C6.6179 15.2519 6.08316 14.7171 5.66417 14.0959C5.0138 13.1321 4.66642 11.996 4.66667 10.8334H3C3.00089 12.3281 3.44741 13.7886 4.2825 15.0284C4.82237 15.8251 5.50905 16.5118 6.30583 17.0517C7.54385 17.8896 9.00509 18.3361 10.5 18.3334C11.0077 18.3333 11.5142 18.2822 12.0117 18.1809C12.9706 17.9828 13.8816 17.5993 14.6933 17.0517C15.0919 16.7831 15.4634 16.4764 15.8025 16.1359C16.1421 15.7953 16.449 15.4237 16.7192 15.0259C17.5564 13.7882 18.0026 12.3276 18 10.8334C18 10.3256 17.9489 9.81919 17.8475 9.32169Z" fill="white"/>
</g>
</svg>
