<svg width="54" height="54" viewBox="0 0 54 54" fill="none" xmlns="http://www.w3.org/2000/svg">
<rect width="54" height="54" rx="8" fill="white" fill-opacity="0.1"/>
<path fill-rule="evenodd" clip-rule="evenodd" d="M22.7608 22.8575C23.4591 21.81 25.0216 20.3333 27.4166 20.3333C29.1916 20.3333 30.4583 21.2333 31.2558 22.275C31.7725 22.952 32.1377 23.7321 32.3266 24.5625C32.9808 24.6683 33.7391 24.9208 34.4141 25.4075C35.41 26.1233 36.1666 27.3108 36.1666 29.0833C36.1666 30.855 35.41 32.0425 34.4141 32.76C33.4608 33.4458 32.3416 33.6666 31.5833 33.6666H27.8333V28.1783L28.9108 29.2558C29.068 29.4076 29.2785 29.4916 29.497 29.4897C29.7155 29.4878 29.9245 29.4002 30.079 29.2457C30.2335 29.0912 30.3211 28.8821 30.323 28.6636C30.3249 28.4451 30.2409 28.2346 30.0891 28.0775L27.5891 25.5775C27.4329 25.4213 27.221 25.3335 27 25.3335C26.779 25.3335 26.5671 25.4213 26.4108 25.5775L23.9108 28.0775C23.8312 28.1544 23.7677 28.2463 23.7241 28.348C23.6804 28.4496 23.6574 28.559 23.6564 28.6696C23.6555 28.7803 23.6766 28.89 23.7185 28.9924C23.7604 29.0949 23.8222 29.1879 23.9005 29.2661C23.9787 29.3444 24.0718 29.4063 24.1742 29.4482C24.2766 29.4901 24.3863 29.5111 24.497 29.5102C24.6076 29.5092 24.717 29.4862 24.8187 29.4426C24.9203 29.3989 25.0123 29.3354 25.0891 29.2558L26.1666 28.1783V33.6666H23.25C22.3525 33.6666 21.025 33.4041 19.8983 32.5933C18.7291 31.7508 17.8333 30.355 17.8333 28.25C17.8333 26.145 18.7291 24.7491 19.8983 23.9066C20.835 23.2325 21.9091 22.9375 22.7608 22.8566V22.8575Z" fill="#907EFC"/>
</svg>
